<?xml version="1.0" standalone="no"?><!DOCTYPE svg PUBLIC "-//W3C//DTD SVG 1.1//EN" "http://www.w3.org/Graphics/SVG/1.1/DTD/svg11.dtd"><svg t="1543477255418" class="icon" style="" viewBox="0 0 1024 1024" version="1.1" xmlns="http://www.w3.org/2000/svg" p-id="9083" xmlns:xlink="http://www.w3.org/1999/xlink" width="32" height="32"><defs><style type="text/css"></style></defs><path d="M512 1024C229.226667 1024 0 794.773333 0 512S229.226667 0 512 0s512 229.226667 512 512-229.226667 512-512 512z m108.032-540.138667a149.098667 149.098667 0 1 0-177.493333-3.370666C302.912 518.613333 198.528 650.837333 191.808 810.666667h319.189333a275.2 275.2 0 0 1-2.602666-36.138667c0-125.866667 84.672-229.973333 195.605333-249.493333a322.837333 322.837333 0 0 0-83.968-41.173334zM810.666667 725.333333a21.333333 21.333333 0 0 0 0-42.666666h-64v-64a21.333333 21.333333 0 0 0-42.666667 0v64h-64a21.333333 21.333333 0 0 0 0 42.666666h64v64a21.333333 21.333333 0 0 0 42.666667 0v-64h64z" fill="#2c2c2c" p-id="9084"></path></svg>