<?xml version="1.0" standalone="no"?><!DOCTYPE svg PUBLIC "-//W3C//DTD SVG 1.1//EN" "http://www.w3.org/Graphics/SVG/1.1/DTD/svg11.dtd"><svg t="1543477158958" class="icon" style="" viewBox="0 0 1024 1024" version="1.1" xmlns="http://www.w3.org/2000/svg" p-id="6900" xmlns:xlink="http://www.w3.org/1999/xlink" width="32" height="32"><defs><style type="text/css"></style></defs><path d="M217.984 214.016l587.989333 0-40.021333-43.989333-512 0zM512 745.984l233.984-233.984-148.010667 0 0-86.016-171.989333 0 0 86.016-148.010667 0zM875.989333 224q20.010667 24.021333 20.010667 54.016l0 532.010667q0 34.005333-25.984 59.989333t-59.989333 25.984l-596.010667 0q-34.005333 0-59.989333-25.984t-25.984-59.989333l0-532.010667q0-29.994667 20.010667-54.016l57.984-72.021333q20.010667-24.021333 50.005333-24.021333l512 0q29.994667 0 50.005333 24.021333z" p-id="6901"></path></svg>