<?xml version="1.0" standalone="no"?><!DOCTYPE svg PUBLIC "-//W3C//DTD SVG 1.1//EN" "http://www.w3.org/Graphics/SVG/1.1/DTD/svg11.dtd"><svg t="1545299073886" class="icon" style="" viewBox="0 0 1079 1024" version="1.1" xmlns="http://www.w3.org/2000/svg" p-id="2975" xmlns:xlink="http://www.w3.org/1999/xlink" width="210.7421875" height="200"><defs><style type="text/css"></style></defs><path d="M 503.074 573.449 a 51.6864 51.6864 0 0 0 73.3184 0 l 369.707 -370.492 a 52.224 52.224 0 0 0 0 -73.6597 a 51.6693 51.6693 0 0 0 -73.3184 0 L 539.716 463.07 L 206.652 129.297 a 51.6693 51.6693 0 0 0 -73.3184 0 a 52.2667 52.2667 0 0 0 0 73.6597 l 369.741 370.492 Z m 369.707 -122.871 L 539.716 784.341 L 206.652 450.577 a 51.6693 51.6693 0 0 0 -73.3184 0 a 52.2496 52.2496 0 0 0 0 73.6427 l 369.732 370.492 a 51.7035 51.7035 0 0 0 73.3184 0 l 369.741 -370.492 a 52.2581 52.2581 0 0 0 0 -73.6427 a 51.7035 51.7035 0 0 0 -73.344 0 Z" fill="#8a8a8a" p-id="2976"></path></svg>