<?xml version="1.0" standalone="no"?><!DOCTYPE svg PUBLIC "-//W3C//DTD SVG 1.1//EN" "http://www.w3.org/Graphics/SVG/1.1/DTD/svg11.dtd"><svg t="1543476930801" class="icon" style="" viewBox="0 0 1025 1024" version="1.1" xmlns="http://www.w3.org/2000/svg" p-id="4799" xmlns:xlink="http://www.w3.org/1999/xlink" width="32.03125" height="32"><defs><style type="text/css"></style></defs><path d="M991.170588 443.095151 602.933747 38.903763C578.818071 13.829998 546.559652 0 512.011215 0c-34.552523 0-66.810942 13.829998-90.955217 38.903763L32.823242 443.095151c-40.062051 41.714705-34.903891 77.785055-28.281018 92.834626 4.723036 10.704459 20.657155 40.082479 66.565802 40.082479l56.905232 0 0 310.931852c0 70.571802 50.678668 137.055891 122.717227 137.055891l65.301286 0 99.980465 0 0-73.070191L416.012236 694.942066c0-35.287944-5.360401-54.948195 30.699735-54.948195l65.299244 0 65.301286 0c36.029493 0 30.697692 19.658208 30.697692 54.948195l0 255.9857 0 73.070191 99.953909 0 65.301286 0c72.06103 0 122.739698-66.484088 122.739698-137.055891L896.005086 576.012257l56.892975 0c45.920904 0 61.840723-29.375978 66.57193-40.082479C1026.080607 520.880207 1031.228553 484.809857 991.170588 443.095151L991.170588 443.095151zM991.170588 443.095151" p-id="4800"></path></svg>